<?xml version="1.0" encoding="utf-8"?>
<!-- Generator: Adobe Illustrator 25.2.0, SVG Export Plug-In . SVG Version: 6.00 Build 0)  -->
<svg version="1.1" id="Layer_2" xmlns="http://www.w3.org/2000/svg" xmlns:xlink="http://www.w3.org/1999/xlink" x="0px" y="0px"
	 viewBox="0 0 1200 990.4" style="enable-background:new 0 0 1200 990.4;" xml:space="preserve">
<style type="text/css">
	.st0{fill:#EF196C;stroke:#231F20;stroke-width:0.25;stroke-miterlimit:10;}
	.st1{fill:#519FC9;stroke:#231F20;stroke-width:0.25;stroke-miterlimit:10;}
	.st2{fill:#82C222;stroke:#231F20;stroke-width:0.25;stroke-miterlimit:10;}
	.st3{fill:#FDA521;stroke:#231F20;stroke-width:0.25;stroke-miterlimit:10;}
	.st4{display:none;}
	.st5{font-family:'Bauhaus93';}
	.st6{font-size:103.1526px;}
</style>
<g>
	<path class="st0" d="M859.1,442.8c0,0-235,199-252.1,540.2c0,0,58.8-257.8,401.8-257.8C1008.8,725.2,667.7,691,859.1,442.8z"/>
	<path class="st1" d="M339.5,442.8c0,0,235,199,252.1,540.2c0,0-58.8-257.8-401.8-257.8C189.8,725.2,531,691,339.5,442.8z"/>
	<path class="st2" d="M708.1,167.3c0,0-151.6,219.9-92.2,625.4c0,0,34.7-296.9,245.1-424.9C861,367.9,586.5,461.4,708.1,167.3z"/>
	<path class="st3" d="M493.4,167.3c0,0,151.6,219.9,92.2,625.4c0,0-34.7-296.9-245.1-424.9C340.5,367.9,615,461.4,493.4,167.3z"/>
	<circle class="st3" cx="438.8" cy="292.6" r="49.8"/>
	<circle class="st2" cx="761.5" cy="292.6" r="49.8"/>
	<circle class="st0" cx="926.4" cy="586.8" r="62.5"/>
	<circle class="st1" cx="272.5" cy="586.8" r="62.5"/>
	<path class="st0" d="M134,381.9c0,0,33,113.5,106.2,84.2C240.2,466.1,236.5,385.5,134,381.9z"/>
	<path class="st2" d="M244.6,211.1c0,0-14.9,117.3,63.9,119.5C308.5,330.7,337.2,255.3,244.6,211.1z"/>
	<path class="st1" d="M438.4,33.1c0,0-75.2,91.2-9.8,135.2C428.7,168.3,493.2,119.9,438.4,33.1z"/>
	<path class="st1" d="M1066,381.9c0,0-33,113.5-106.2,84.2C959.8,466.1,963.5,385.5,1066,381.9z"/>
	<path class="st3" d="M954.9,210.6c0,0,15.1,117.2-63.8,119.6C891.1,330.2,862.3,254.9,954.9,210.6z"/>
	<path class="st0" d="M760.2,31c0,0,75.4,91.1,10,135.2C770.2,166.2,705.6,117.9,760.2,31z"/>
</g>
<text transform="matrix(1 0 0 1 194.1964 1063.7916)" class="st4 st5 st6">STUDENT SOCIETY</text>
</svg>
